<svg xmlns="http://www.w3.org/2000/svg" viewBox="0 0 22.32 21.35"><title>Recurso 7</title><g id="Capa_2" data-name="Capa 2"><g id="Capa_1-2" data-name="Capa 1"><path d="M19,13.58h-.15l.09-.11c2.29-2.87,3.41-5.41,3.41-7.78a5.51,5.51,0,0,0-1.79-4A6.15,6.15,0,0,0,16.3,0a5.67,5.67,0,0,0-3.58,1.08,7,7,0,0,0-1.56,1.7,7,7,0,0,0-1.57-1.7A5.64,5.64,0,0,0,6,0,6.19,6.19,0,0,0,1.78,1.65,5.5,5.5,0,0,0,0,5.69c0,2.37,1.11,4.91,3.41,7.78a74.2,74.2,0,0,0,7.15,7.32l.6.56.6-.56c1.11-1,2.23-2.09,3.29-3.14a.93.93,0,0,0,.91.81H17a.94.94,0,0,0,.93-.94v-1h1a.93.93,0,0,0,.93-.93V14.52A.94.94,0,0,0,19,13.58ZM11.16,19a66.91,66.91,0,0,1-6.39-6.58c-2-2.54-3-4.73-3-6.69A3.77,3.77,0,0,1,3,2.92,4.39,4.39,0,0,1,6,1.75a4.08,4.08,0,0,1,2.53.72A7.19,7.19,0,0,1,10.39,4.9l.77,1.44.77-1.44a7.19,7.19,0,0,1,1.84-2.43,4.06,4.06,0,0,1,2.53-.72,4.41,4.41,0,0,1,3,1.17,3.8,3.8,0,0,1,1.23,2.77c0,1.89-.91,4-2.78,6.39a.92.92,0,0,0-.78-.45H16a.93.93,0,0,0-.93.93v1H14a.94.94,0,0,0-.93.94v1.05a.92.92,0,0,0,.71.88C12.93,17.29,12.05,18.12,11.16,19Zm5.78-3.46.07,2-1,.06v-2h-.5l-1.46.07-.07-1h2L16,12.63l1-.07v2h2l.07.92Z"/></g></g></svg>