<svg xmlns="http://www.w3.org/2000/svg" viewBox="0 0 21.66 25.15"><defs><style>.cls-1{stroke:#000;stroke-miterlimit:10;stroke-width:0.25px;}</style></defs><title>Recurso 6</title><g id="Capa_2" data-name="Capa 2"><g id="Capa_1-2" data-name="Capa 1"><path class="cls-1" d="M19.84,20.44c.52,0,1,.25,1.56.25a1.2,1.2,0,0,0-.68-1.64,9.74,9.74,0,0,0-1-.31c-.54-.15-.45-.16-.8-.51l-1.68-1.58c-.31-.31-.81-.58-.94-1.07-.21-.78.19-4.34-.14-5.15a1.3,1.3,0,0,0-.63-.68l-2.15-.46-.54-.12a2.78,2.78,0,0,0-.6-.1c0-1.72-.09-.24,1-2.37a4.18,4.18,0,0,0-.13-3.94c-.37-.54-.48-.4-.46-.72a1.18,1.18,0,0,0,0-.37,1.78,1.78,0,0,0-3.53,0c-.12.91.28.12-.28.83a4.08,4.08,0,0,0-.32,4.2A5.05,5.05,0,0,0,9.27,8c.26.29.16.34.16,1.1-.41,0-2.25.54-2.72.55C5,9.67,5.4,11.71,5.4,12.89a25.71,25.71,0,0,1,0,2.65c-.1.47-.74.9-1.22,1.39-.15.14-.2.17-.35.3a3.43,3.43,0,0,0-.33.33l-1,1C2,19,.82,18.72.29,19.65a.94.94,0,0,0,0,1,12.69,12.69,0,0,0,1.66-.31c-.14.2-2.42,1.4-.27,2.49l1.52.74a8.25,8.25,0,0,0,2.17.14c0,.08-.53.51-.14,1s.6.29,1.12.18,2.71-.64,3-.6l5.06.17c.78.09,2.08,0,2.91,0,3.05,0,4.35-2.25,3.34-3.38a9.82,9.82,0,0,0-.82-.69M9.48,1.87a1.36,1.36,0,0,1,2.71,0A2.47,2.47,0,0,0,9.48,1.87Zm-1,2.32a2.88,2.88,0,0,1,.67-1.5,2.42,2.42,0,0,1,.57-.48,2.11,2.11,0,0,1,2.7.46,3,3,0,0,1,.69,1.42,2.84,2.84,0,0,0-2.52-1.26,2.74,2.74,0,0,0-1.72.84Zm4.63,1.16a4.94,4.94,0,0,1-.72,1.85L12,7.73c-.06.07-.11.1-.18.17a1.37,1.37,0,0,1-1.73.2.72.72,0,0,1-.23-.17l-.11-.1L9.64,7.7a4.26,4.26,0,0,1-1.1-2.39,2.39,2.39,0,0,1,3-1.92,2.34,2.34,0,0,1,1,.74A2.63,2.63,0,0,1,13.15,5.35ZM7.16,10c.19,0,2.15-.44,2.27-.5,0,.66-.07,1,.22,1.44a1.43,1.43,0,0,0,2.37,0c.29-.42.22-.78.22-1.44.15.07,2,.48,2.27.5-.14.59-.3,1.18-.43,1.78l-.43,1.84a9.83,9.83,0,0,1,0,1.61l-.19,1.17c0,.17,0,.29-.16.29h-5c-.17,0-.14-.08-.16-.24L8,15.24a8.62,8.62,0,0,1,0-1.6,5.81,5.81,0,0,0-.2-.9ZM9.83,8.46c.14,0,.27.14.46.2a1.82,1.82,0,0,0,1.55-.2c0,.86.3,2.67-1,2.67S9.83,9.3,9.83,8.46ZM.57,20.23c0-.95,1.2-.87,1.87-1.15.17-.07,1.89-1.73,2.15-2,1.42-1.43,1.22-.54,1.22-3.91,0-.68,0-1.38,0-2.06a1,1,0,0,1,1-1.11l.62,2.75a6.56,6.56,0,0,1,.21.92c0,.24,0,.69-.08,1a3.38,3.38,0,0,1-.45,1.81,5.06,5.06,0,0,1-.39.77,2.84,2.84,0,0,1-1.32.94L3.86,19a2,2,0,0,0-.66.45,2.2,2.2,0,0,1-.76.4C1.9,20,1.16,20.1.57,20.23ZM14.91,10c1.28.11,1,1.66,1,3.12,0,.69,0,1.38,0,2.06,0,1.1.49,1.16,1.2,1.88.25.25,2,1.88,2.12,2,.76.32,1.89.24,1.92,1.2-.51-.24-1.7-.09-2.53-.84-.44-.4-.14-.16-.71-.45l-1.53-.73A3,3,0,0,1,15,17.27a8,8,0,0,1-.72-1.54l-.2-2L14.71,11A6.3,6.3,0,0,0,14.91,10ZM3.49,19.78c.42-.63,2.82-1.17,3.55-2.28a3.38,3.38,0,0,0,.34-.62,2.64,2.64,0,0,1,.34-.67c0,.69.19.68.2,1.05s0,.88,0,1.31l-2.2.62-1.1.31A7.16,7.16,0,0,1,3.49,19.78Zm4.83-2.72h5v1.51h-5Zm10.16,2.82c-.23,0-2-.54-2.37-.64l-2.36-.67V17.31c0-.47.2-.35.2-1.1.51.59.21,1.39,1.86,2.21l2.07,1A2.1,2.1,0,0,1,18.48,19.88Zm1.36.56-.11,0Zm-16.2.35,0,.4a2.42,2.42,0,0,0,.51-.05,2.07,2.07,0,0,1-.13.43,2.05,2.05,0,0,0,.28,1.73A2.36,2.36,0,0,1,2.85,23c-1-.51-2.18-.86-1.38-1.65a4.26,4.26,0,0,1,1.08-.78,3.86,3.86,0,0,1,.68-.22l2.13-.59C5.69,19.64,8,19,8.27,19H13.4c.38,0,4.24,1.14,4.79,1.29a5.94,5.94,0,0,1,1.48.59c.3.18.92.67.92,1.08a2.09,2.09,0,0,1-.72,1.35,4.72,4.72,0,0,1-3.25.82c.09-.39.53-.91.14-1.65a2.22,2.22,0,0,1-.29-.47c.27-.07.22-.43,1.05-.45v-.4a1.64,1.64,0,0,0-.8.15.52.52,0,0,0-.43-.33,4,4,0,0,0-.78,0c-.29,0-.38-.06-.7-.05a5.58,5.58,0,0,1-.76-.05,10.41,10.41,0,0,0-1.38-.14c-.42.1-.68.63-.91.72s-3.83-.69-4.61-.82a4.32,4.32,0,0,0-2.11,0C4.57,20.68,4.08,20.75,3.64,20.79ZM4.9,23.35C4,22,4.52,21.84,4.7,21.09l1.5-.16c.43-.05,3.72.63,4.31.73,1.12.2,1.28.42,1.9-.21.45-.46.29-.32,1.29-.21.24,0,.52,0,.78.08.47.07,1.16,0,1.64.07.33,0,.34.22,0,.32L14,22.2a70.4,70.4,0,0,1-7.5,1.05A14.76,14.76,0,0,0,4.9,23.35Zm11.22.76A36.67,36.67,0,0,0,12,24L10.63,24c-.28,0-.35-.06-.65-.06a10.66,10.66,0,0,0-3.06.46l-.58.13c-.28.05-.84.31-.84-.18,0-.26.83-.44,1.06-.51a4,4,0,0,1,1.3-.26,59.88,59.88,0,0,0,7.45-1.19A3.71,3.71,0,0,1,16,22.2a1.11,1.11,0,0,1,.5.85A2.37,2.37,0,0,1,16.12,24.11Z"/></g></g></svg>