<svg xmlns="http://www.w3.org/2000/svg" viewBox="0 0 19.01 19"><title>Recurso 8</title><g id="Capa_2" data-name="Capa 2"><g id="Capa_1-2" data-name="Capa 1"><path d="M9.51,19A9.5,9.5,0,0,1,2,3.7l.25-.31a8.86,8.86,0,0,1,.9-.93,6.59,6.59,0,0,1,.65-.54A10.48,10.48,0,0,1,5.23,1,9.41,9.41,0,0,1,9,0,9.37,9.37,0,0,1,15.82,2.4,9.61,9.61,0,0,1,19,9h0a9.38,9.38,0,0,1-2.41,6.86A9.55,9.55,0,0,1,10,19Zm0-17.43H9.14A8,8,0,0,0,3.65,4.15,7.86,7.86,0,0,0,1.57,9.86a8,8,0,0,0,8.29,7.57h0a8,8,0,0,0,7.57-8.29A7.8,7.8,0,0,0,14.91,3.7,8,8,0,0,0,9.47,1.57Z"/><path d="M7.52,13.76l-.2,0a.91.91,0,0,1-.56-1V6.54a.87.87,0,0,1,.56-1,1.12,1.12,0,0,1,.91.24l1.22.7c1.24.71,2.5,1.43,3.71,2.14l.22.13.34.19a.83.83,0,0,1,.4.7.78.78,0,0,1-.41.67l-1.29.75-.86.5L8.31,13.44A1.54,1.54,0,0,1,7.52,13.76Zm.24-7.09V12.6l0,0,3.24-1.88.88-.5,1-.56h0l-.24-.14c-1.2-.71-2.46-1.43-3.7-2.14Z"/></g></g></svg>