<svg xmlns="http://www.w3.org/2000/svg" viewBox="0 0 137.88 26.22"><defs><style>.cls-1{fill:none;stroke:#000;stroke-miterlimit:10;stroke-width:4.22px;}</style></defs><title>Recurso 4</title><g id="Capa_2" data-name="Capa 2"><g id="Capa_1-2" data-name="Capa 1"><rect class="cls-1" x="2.11" y="2.11" width="133.67" height="22.01" rx="8.56"/><path d="M10.71,7.81H110.1a0,0,0,0,1,0,0v10.6a0,0,0,0,1,0,0H10.71a4.12,4.12,0,0,1-4.12-4.12V11.94a4.12,4.12,0,0,1,4.12-4.12Z"/><path d="M116.25,7.81h1.68a0,0,0,0,1,0,0v10.6a0,0,0,0,1,0,0h-1.68a4.12,4.12,0,0,1-4.12-4.12V11.94a4.12,4.12,0,0,1,4.12-4.12Z" transform="translate(230.07 26.22) rotate(-180)"/><path d="M123.79,7.81h1.68a0,0,0,0,1,0,0v10.6a0,0,0,0,1,0,0h-1.68a4.12,4.12,0,0,1-4.12-4.12V11.94a4.12,4.12,0,0,1,4.12-4.12Z" transform="translate(245.14 26.22) rotate(-180)"/></g></g></svg>