<svg xmlns="http://www.w3.org/2000/svg" viewBox="0 0 348.06 52.79"><title>Recurso 2</title><g id="Capa_2" data-name="Capa 2"><g id="Capa_1-2" data-name="Capa 1"><path d="M102.25,26.43c0,2.11.07,4.1.21,5.94s.36,3.56.64,5.13a28.16,28.16,0,0,0,1.12,4.33,19.12,19.12,0,0,0,1.69,3.55,13.29,13.29,0,0,0,2.25,2.75,12.11,12.11,0,0,0,2.8,1.95,13.66,13.66,0,0,0,3.46,1.15,21,21,0,0,0,4.2.39,17.05,17.05,0,0,0,7.62-1.54,12.29,12.29,0,0,0,2.83-1.95,13,13,0,0,0,2.25-2.75A18.51,18.51,0,0,0,133,41.83a27,27,0,0,0,1.13-4.33,51.41,51.41,0,0,0,.63-5.13c.14-1.84.21-3.83.21-5.94,0-1.62,0-3.22-.16-4.79s-.26-3.11-.47-4.63a28,28,0,0,0-.93-4.29,22.43,22.43,0,0,0-1.5-3.8,15.47,15.47,0,0,0-2.14-3.19,14.24,14.24,0,0,0-2.84-2.46,12,12,0,0,0-3.67-1.58,19.07,19.07,0,0,0-4.65-.52,14.89,14.89,0,0,0-8.32,2.1,14,14,0,0,0-2.84,2.46,15.51,15.51,0,0,0-2.15,3.19,24.24,24.24,0,0,0-1.5,3.8,29.29,29.29,0,0,0-.92,4.29c-.21,1.52-.37,3.06-.48,4.63s-.16,3.17-.16,4.79m-8.29,0A26.33,26.33,0,0,1,94.51,21a23.79,23.79,0,0,1,1.68-5,30.29,30.29,0,0,1,2.55-4.5,28.13,28.13,0,0,1,6.91-7A26.2,26.2,0,0,1,109.82,2,23.45,23.45,0,0,1,114.22.5a20,20,0,0,1,4.4-.5,21.72,21.72,0,0,1,4.62.5A23.3,23.3,0,0,1,127.73,2a26,26,0,0,1,4.19,2.4,27.58,27.58,0,0,1,3.71,3.16,26.54,26.54,0,0,1,3.13,3.86,30.26,30.26,0,0,1,2.43,4.5,24.89,24.89,0,0,1,1.57,5,27.79,27.79,0,0,1,.52,5.46,25.3,25.3,0,0,1-.48,4.91,26.82,26.82,0,0,1-1.43,4.8,29.87,29.87,0,0,1-2.27,4.48,27.11,27.11,0,0,1-3,3.94,26,26,0,0,1-3.63,3.33,26.5,26.5,0,0,1-4.2,2.63,21.44,21.44,0,0,1-4.67,1.7,21.87,21.87,0,0,1-5,.57,23.84,23.84,0,0,1-5.12-.55,22,22,0,0,1-4.74-1.65A25.91,25.91,0,0,1,104.54,48a25,25,0,0,1-3.61-3.29A26.94,26.94,0,0,1,98,40.81a28.44,28.44,0,0,1-2.2-4.5,26.3,26.3,0,0,1-1.38-4.86A27.1,27.1,0,0,1,94,26.43Z"/><path d="M161.07,23.5h6.54a13.17,13.17,0,0,0,1.92-.13,11.25,11.25,0,0,0,1.73-.37,6.55,6.55,0,0,0,1.52-.69,6.45,6.45,0,0,0,1.29-1,7,7,0,0,0,1-1.47,11.3,11.3,0,0,0,.78-1.92,15.28,15.28,0,0,0,.48-2.44,25.22,25.22,0,0,0,.16-3,21.43,21.43,0,0,0-.24-3.37,11.31,11.31,0,0,0-.72-2.62,9.47,9.47,0,0,0-1.11-2,6.65,6.65,0,0,0-1.39-1.41,8.06,8.06,0,0,0-3.42-1.5q-1-.18-1.89-.27c-.63-.06-1.25-.09-1.88-.09h-1.3l-1.33,0L162,1.29l-1,.1Zm-15.3,27h7.91V1.41h-8V.22h13.79c.58,0,1.15,0,1.72,0l.87,0,.86-.06h.87l.86,0c.58,0,1.16,0,1.74,0a53.58,53.58,0,0,1,7.51.47,11.9,11.9,0,0,1,3.16.92A13.54,13.54,0,0,1,180,3.19a12.73,12.73,0,0,1,2.17,2.09,9.87,9.87,0,0,1,1.43,2.34,14.3,14.3,0,0,1,.79,2.4,10.44,10.44,0,0,1,.26,2.25,8.46,8.46,0,0,1-.1,1.25c-.07.46-.17,1-.3,1.55a7.46,7.46,0,0,1-.64,1.73,11.79,11.79,0,0,1-1.1,1.76,11,11,0,0,1-1.65,1.71,16.25,16.25,0,0,1-2.24,1.56,13.35,13.35,0,0,1-3,1.24,22.21,22.21,0,0,1-3.65.73l1.23.19,1.78.34a17.59,17.59,0,0,1,2,.53,18,18,0,0,1,2,.81,14.33,14.33,0,0,1,2,1.1,15,15,0,0,1,1.82,1.4,8.5,8.5,0,0,1,2.48,4,15.34,15.34,0,0,1,.37,1.55c.1.55.18,1.13.24,1.75s.12,1.24.17,1.86.09,1.27.12,1.93l.22,3.74c0,.6.09,1.15.15,1.65s.15,1,.24,1.37a12.19,12.19,0,0,0,.56,1.77,9.86,9.86,0,0,0,.8,1.59,2.92,2.92,0,0,0,1.19,1.1,4,4,0,0,0,1.76.37,5.07,5.07,0,0,0,.94-.09,6.25,6.25,0,0,0,1-.27,4.81,4.81,0,0,0,.94-.46,5.19,5.19,0,0,0,.83-.67l.07-.07.77.94-.08.06-.39.3c-.14.1-.28.21-.44.31a4.53,4.53,0,0,1-.54.32,6,6,0,0,1-.67.31c-.24.09-.51.18-.81.26s-.62.15-1,.21a11.76,11.76,0,0,1-1.17.14c-.43,0-.9,0-1.4,0a18.14,18.14,0,0,1-2.66-.18,10.12,10.12,0,0,1-2.17-.55,7.94,7.94,0,0,1-1.74-.9,6.48,6.48,0,0,1-1.36-1.25,7.74,7.74,0,0,1-1-1.58,10,10,0,0,1-.7-1.91,21,21,0,0,1-.46-2.24c-.13-.8-.23-1.66-.3-2.57l-.51-6.56a18.27,18.27,0,0,0-.5-3.19,9.46,9.46,0,0,0-.93-2.4,9.7,9.7,0,0,0-1.24-1.73A6.61,6.61,0,0,0,174.23,26a7.91,7.91,0,0,0-1.56-.74,6.83,6.83,0,0,0-1.61-.36c-.55-.06-1.06-.11-1.54-.14s-.92,0-1.33,0h-7.12V50.53h8v1.19H145.68V50.53Z"/><path d="M196.76,50.53h7.91V1.41h-8V.22h13.78c.58,0,1.16,0,1.73,0l.86,0c.29,0,.57,0,.87-.06h.86l.87,0c.58,0,1.16,0,1.73,0a53.47,53.47,0,0,1,7.51.47,11.8,11.8,0,0,1,3.16.92A13.36,13.36,0,0,1,231,3.19a12.73,12.73,0,0,1,2.17,2.09,9.83,9.83,0,0,1,1.42,2.34,13.45,13.45,0,0,1,.79,2.4,9.87,9.87,0,0,1,.27,2.25,10.08,10.08,0,0,1-.1,1.25c-.07.46-.17,1-.3,1.55a8.5,8.5,0,0,1-.64,1.73,11.11,11.11,0,0,1-1.11,1.76,11.37,11.37,0,0,1-1.64,1.71,17.57,17.57,0,0,1-2.24,1.56,13.44,13.44,0,0,1-3,1.24,22.08,22.08,0,0,1-3.64.73l1.23.19,1.77.34a16.57,16.57,0,0,1,2,.53,18.14,18.14,0,0,1,2.05.81,13.67,13.67,0,0,1,2,1.1,14.31,14.31,0,0,1,1.83,1.4,8.48,8.48,0,0,1,2.47,4,13,13,0,0,1,.37,1.55,17.54,17.54,0,0,1,.25,1.75c.06.62.11,1.24.16,1.86s.09,1.27.13,1.93l.21,3.74c0,.6.09,1.15.16,1.65a11.73,11.73,0,0,0,.24,1.37,12.17,12.17,0,0,0,.55,1.77,10.79,10.79,0,0,0,.81,1.59,2.92,2.92,0,0,0,1.19,1.1,3.94,3.94,0,0,0,1.76.37,5.15,5.15,0,0,0,.94-.09,6.45,6.45,0,0,0,1-.27,4.55,4.55,0,0,0,.94-.46,5.19,5.19,0,0,0,.83-.67l.07-.07.77.94-.07.06-.39.3-.44.31a4,4,0,0,1-.55.32,6.8,6.8,0,0,1-.66.31c-.24.09-.52.18-.81.26s-.62.15-1,.21-.75.11-1.18.14-.89,0-1.4,0a18,18,0,0,1-2.65-.18,10,10,0,0,1-2.17-.55,7.51,7.51,0,0,1-1.74-.9,6.48,6.48,0,0,1-1.36-1.25,8.23,8.23,0,0,1-1-1.58,11.62,11.62,0,0,1-.7-1.91c-.18-.69-.33-1.43-.46-2.24s-.22-1.66-.3-2.57l-.5-6.56a19.27,19.27,0,0,0-.5-3.19,9.85,9.85,0,0,0-.93-2.4,10.23,10.23,0,0,0-1.24-1.73A6.61,6.61,0,0,0,225.22,26a7.91,7.91,0,0,0-1.56-.74,7.63,7.63,0,0,0-1.61-.36c-.55-.06-1.07-.11-1.55-.14s-.92,0-1.33,0h-7.11V50.53h8v1.19H196.67V50.53Zm15.3-27h6.54a12.93,12.93,0,0,0,1.91-.13,11.64,11.64,0,0,0,1.74-.37,6.75,6.75,0,0,0,1.52-.69,7.07,7.07,0,0,0,1.29-1,7.42,7.42,0,0,0,1-1.47,10.53,10.53,0,0,0,.77-1.92,14.21,14.21,0,0,0,.49-2.44,27.51,27.51,0,0,0,.16-3,21.43,21.43,0,0,0-.24-3.37,11.29,11.29,0,0,0-.73-2.62,9.47,9.47,0,0,0-1.11-2,6.38,6.38,0,0,0-1.38-1.41,8.06,8.06,0,0,0-3.42-1.5c-.64-.12-1.27-.21-1.9-.27s-1.25-.09-1.87-.09h-1.31l-1.32,0L213,1.29l-.95.1Z"/><path d="M247.74,50.53h7.95V1.19h-8V0h41.59V12.71h-.95l0-.07a36.07,36.07,0,0,0-2-4.94,14.37,14.37,0,0,0-1.19-2,12.45,12.45,0,0,0-1.4-1.64A8.89,8.89,0,0,0,282,2.82a9.58,9.58,0,0,0-1.94-.91,12.32,12.32,0,0,0-2.3-.54A19.35,19.35,0,0,0,275,1.19H263.11V23.38h4.61a16.18,16.18,0,0,0,4-.43,6.53,6.53,0,0,0,1.52-.61,6.15,6.15,0,0,0,1.29-1,9.6,9.6,0,0,0,2-3.23c.28-.69.55-1.47.82-2.36s.54-1.87.81-2.95v-.07h1v22.7h-1v-.07c-.17-.7-.34-1.38-.52-2.06s-.35-1.35-.53-2a14.22,14.22,0,0,0-.65-1.84,11.74,11.74,0,0,0-.86-1.61,7,7,0,0,0-1.13-1.35,7.37,7.37,0,0,0-1.45-1.05,6.56,6.56,0,0,0-1.84-.67,11.24,11.24,0,0,0-2.35-.22h-5.77v26H276.7a14.7,14.7,0,0,0,3.63-.42,9.9,9.9,0,0,0,2.95-1.27A16.4,16.4,0,0,0,285.66,47a13.94,13.94,0,0,0,1.9-2.18A19.08,19.08,0,0,0,289,42.43,17,17,0,0,0,290,40c.26-.84.48-1.61.65-2.31a16.8,16.8,0,0,0,.36-1.87v-.08h1v16H247.65v-1.2Z"/><polygon points="347.97 51.83 326.06 51.83 326.06 50.66 333.86 50.66 318.31 10.04 302.98 50.66 310.63 50.66 310.63 51.83 295.2 51.83 295.2 50.66 301.59 50.66 320.58 0.31 322.47 0.31 341.68 50.66 348.06 50.66 348.06 51.83 347.97 51.83"/><path d="M89.83,51.73h-1.1l0,0a6.53,6.53,0,0,0-.52-.53,7,7,0,0,0-.6-.48,3.27,3.27,0,0,0-1.92-.45,6.9,6.9,0,0,0-1.09.1,8.1,8.1,0,0,0-1.18.29l-2.83.88c-.53.17-1.09.32-1.69.47s-1.23.29-1.88.42-1.36.22-2.1.29-1.5.1-2.3.1a23.93,23.93,0,0,1-4.4-.41,24.45,24.45,0,0,1-4.28-1.22A20.9,20.9,0,0,1,59.82,49,26,26,0,0,1,56,45.84a29.2,29.2,0,0,1-3.19-3.79,32.09,32.09,0,0,1-2.62-4.43,21.79,21.79,0,0,1-1.76-5.12,29.12,29.12,0,0,1-.1-11,26.81,26.81,0,0,1,1.43-4.94A27.37,27.37,0,0,1,55,8,25.83,25.83,0,0,1,58.73,4.7,26.29,26.29,0,0,1,63,2.16,23.43,23.43,0,0,1,73.1,0a19.32,19.32,0,0,1,2.07.11A12.43,12.43,0,0,1,77,.43c.57.14,1.11.29,1.61.45s1,.33,1.44.5l1.29.51,1.18.45a7.92,7.92,0,0,0,1.1.31,5.51,5.51,0,0,0,1.06.1,3.28,3.28,0,0,0,2-.44,5.23,5.23,0,0,0,.56-.48,5.21,5.21,0,0,0,.52-.53l0,0h1.18v14.3H88l0-.07c-.21-.89-.45-1.78-.72-2.66s-.57-1.75-.9-2.62a15,15,0,0,0-1.18-2.45,13.7,13.7,0,0,0-1.56-2.15,11.49,11.49,0,0,0-2-1.81,14.65,14.65,0,0,0-2.46-1.42,13.12,13.12,0,0,0-3-.92,20.84,20.84,0,0,0-3.68-.3A19.71,19.71,0,0,0,69,1.45a13.94,13.94,0,0,0-2.93.87,15.24,15.24,0,0,0-2.46,1.35,13.59,13.59,0,0,0-2,1.74A13.86,13.86,0,0,0,59.94,7.5a15.23,15.23,0,0,0-1.27,2.4,24.46,24.46,0,0,0-1,2.64,27.55,27.55,0,0,0-.7,2.78c-.19,1-.34,1.91-.46,2.87s-.22,1.94-.28,2.91S56.17,23,56.14,24s0,1.82,0,2.69q0,3.7.3,6.77a37.66,37.66,0,0,0,.89,5.5,26.91,26.91,0,0,0,1.44,4.34,15.88,15.88,0,0,0,1.9,3.32A12.74,12.74,0,0,0,63,49a11.19,11.19,0,0,0,2.79,1.54,18.1,18.1,0,0,0,3.18.84,20.77,20.77,0,0,0,3.5.28,25.08,25.08,0,0,0,4.26-.33,14,14,0,0,0,3.33-1,14.62,14.62,0,0,0,2.6-1.54,11.66,11.66,0,0,0,2-1.93,15.29,15.29,0,0,0,1.54-2.29A15.52,15.52,0,0,0,87.35,42c.3-.9.59-1.8.86-2.71s.53-1.79.76-2.69l0-.06h.93V51.73Z"/><polygon points="0.09 0.31 22 0.31 22 1.48 14.2 1.48 29.75 42.1 45.09 1.48 37.43 1.48 37.43 0.31 52.86 0.31 52.86 1.48 46.47 1.48 27.48 51.83 25.59 51.83 6.38 1.48 0 1.48 0 0.31 0.09 0.31"/></g></g></svg>