<svg xmlns="http://www.w3.org/2000/svg" viewBox="0 0 101.39 111.8"><defs><style>.cls-1{fill:#fff;}</style></defs><title>Recurso 1</title><g id="Capa_2" data-name="Capa 2"><g id="Capa_1-2" data-name="Capa 1"><path d="M77.7,3.5c15.56,3.38,23,9.48,23,9.48s6.09,35.87-18.28,70.39c-12.18,18.27-29.1,27.75-31.81,28.43-2.71-.68-19.63-10.16-31.81-28.43C-4.88,48.85.53,13,.53,13S8,6.88,24.22,3.5c18.31-4.75,35.14-4.59,53.48,0"/><path class="cls-1" d="M55.11,103.08a46.46,46.46,0,0,1-4.19,2.58.61.61,0,0,1-.57,0,45.28,45.28,0,0,1-4.16-2.6c-2-1.38-3.9-2.83-5.1-3.79a90.25,90.25,0,0,1-9.64-8.93,85.38,85.38,0,0,1-8.06-10.08,102.44,102.44,0,0,1-11.22-21.7A105.9,105.9,0,0,1,6.32,34.62C6,31.7,5.67,28.3,5.55,24.86a76.64,76.64,0,0,1,.16-8.5A.61.61,0,0,1,6,15.9,46.53,46.53,0,0,1,14.42,12a84.84,84.84,0,0,1,10.9-3.09l.3-.07A98.09,98.09,0,0,1,51,5.5,104.26,104.26,0,0,1,76.35,8.87l.17,0A74.77,74.77,0,0,1,85,11.27a57.06,57.06,0,0,1,7.46,3.14c.44.22,1,.49,1.5.79s.89.5,1.31.76a.61.61,0,0,1,.29.46,69.44,69.44,0,0,1,.3,8.51c-.07,3.46-.33,6.87-.66,9.77a98.92,98.92,0,0,1-5.81,23.87A97.74,97.74,0,0,1,77.93,80.15l-.1.15a80.47,80.47,0,0,1-8,10.06l0,0a85.54,85.54,0,0,1-9.64,8.92c-1.2,1-3.1,2.4-5.09,3.76m-4.47,1.35c1.17-.64,2.5-1.48,3.78-2.36,2-1.34,3.84-2.76,5-3.7A84.1,84.1,0,0,0,69,89.57l0,0a79.39,79.39,0,0,0,7.83-9.92l.12-.17A96.6,96.6,0,0,0,88.28,58.14,98,98,0,0,0,94,34.56c.33-2.88.59-6.26.66-9.65a70.68,70.68,0,0,0-.27-8.06l-1-.58c-.5-.28-1-.54-1.46-.77a57,57,0,0,0-7.31-3.08,73.81,73.81,0,0,0-8.37-2.32l-.2,0A104.13,104.13,0,0,0,51,6.71a97.54,97.54,0,0,0-25,3.33l-.35.08a82.72,82.72,0,0,0-10.74,3.05,46.09,46.09,0,0,0-7.92,3.6,71.37,71.37,0,0,0-.14,8.05c.11,3.38.41,6.75.76,9.65a104.11,104.11,0,0,0,5.78,23.66A101.36,101.36,0,0,0,24.39,79.57a82.84,82.84,0,0,0,8,9.94,88.85,88.85,0,0,0,9.51,8.81c1.19,1,3.08,2.39,5,3.74C48.16,102.94,49.47,103.79,50.64,104.43Z"/><polygon class="cls-1" points="27.85 33.88 46.57 33.88 46.57 34.84 39.88 34.84 53.22 69.67 66.37 34.84 59.81 34.84 59.81 33.88 72.97 33.88 72.97 34.84 67.51 34.84 51.26 77.91 49.68 77.91 33.25 34.84 27.79 34.84 27.79 33.88 27.85 33.88"/></g></g></svg>