<svg xmlns="http://www.w3.org/2000/svg" viewBox="0 0 22.32 21.35"><defs><style>.cls-1{fill:none;stroke:#000;stroke-miterlimit:10;}</style></defs><title>Recurso 7</title><g id="Capa_2" data-name="Capa 2"><g id="Capa_1-2" data-name="Capa 1"><path class="cls-1" d="M11.16,3.73A7.22,7.22,0,0,1,13,1.48,5.22,5.22,0,0,1,16.3.5,5.69,5.69,0,0,1,20.19,2a5,5,0,0,1,1.63,3.68c0,2.51-1.32,5-3.3,7.47l-.15.18h-.19v-.78a.81.81,0,0,0,0-.16c1.75-2.25,2.9-4.49,2.9-6.71a4.27,4.27,0,0,0-1.39-3.13A4.92,4.92,0,0,0,16.3,1.25a4.51,4.51,0,0,0-2.83.82,7.58,7.58,0,0,0-2,2.59l-.33.62-.33-.62a7.7,7.7,0,0,0-2-2.59A4.51,4.51,0,0,0,6,1.25,5,5,0,0,0,2.63,2.56,4.3,4.3,0,0,0,1.25,5.69c0,2.32,1.25,4.66,3.13,7a70.8,70.8,0,0,0,6.78,7c1-1,2.06-1.94,3-2.91h.58v.48c-1.09,1.07-2.23,2.14-3.37,3.21l-.25.24-.26-.24a76.41,76.41,0,0,1-7.1-7.27c-2-2.48-3.3-5-3.3-7.47A5.05,5.05,0,0,1,2.12,2,5.72,5.72,0,0,1,6,.5a5.19,5.19,0,0,1,3.27,1,7.24,7.24,0,0,1,1.87,2.25"/><path class="cls-1" d="M16,12.13H17a.43.43,0,0,1,.43.43v1.53H19a.43.43,0,0,1,.43.43v1.05A.44.44,0,0,1,19,16H17.44v1.52A.44.44,0,0,1,17,18H16a.44.44,0,0,1-.43-.44V16H14a.43.43,0,0,1-.43-.43V14.52a.43.43,0,0,1,.43-.43h1.53V12.56a.43.43,0,0,1,.43-.43"/></g></g></svg>